<svg xmlns="http://www.w3.org/2000/svg" width="32" height="32" viewBox="0 0 24 24" version="1.1">
    <defs>
        <linearGradient id="a" gradientUnits="userSpaceOnUse" x1="63.041" y1="-14.466" x2="122.93" y2="-113.563" gradientTransform="matrix(.09375 0 0 .09375 0 21)">
            <stop offset="0" stop-opacity="1"/>
            <stop offset="1" stop-opacity="1"/>
        </linearGradient>
        <linearGradient id="b" gradientUnits="userSpaceOnUse" x1="164.137" y1="-58.54" x2="254.061" y2="-58.54" gradientTransform="matrix(.09375 0 0 .09375 0 21)">
            <stop offset="0" stop-opacity="1"/>
            <stop offset="1" stop-opacity="1"/>
        </linearGradient>
    </defs>
    <g stroke="none" fill-rule="nonzero">
        <path d="M23.832 14.852L19.632 24H9.59l5.496-11.813h7.031c1.367 0 2.278 1.415 1.715 2.665zm0 0" fill-opacity="1"/>
        <path d="M10.586 1.398L0 24h9.79L20.772.375h-8.585c-.684 0-1.313.395-1.602 1.023zm0 0" fill="url(#a)"/>
        <path d="M22.117 12.355c.59 0 1.125.293 1.442.79.32.496.355 1.105.113 1.64l-4.145 9.055h-9.476l5.332-11.485zm0-.168h-6.836L9.79 24h9.844l4.187-9.148a1.876 1.876 0 0 0-1.703-2.665zm0 0" fill-opacity="1"/>
        <path d="M15.383 12.355s5.27 5.72 6.508 6.31l1.714-3.759c.602-1.191-.168-2.578-1.601-2.558zm0 0" fill="url(#b)"/>
        <path d="M20.512.543L9.684 23.84H.262L10.734 1.46a1.612 1.612 0 0 1 1.454-.925h8.324zm.261-.168h-8.585c-.684 0-1.313.395-1.602 1.023L0 24h9.79zm0 0" fill-opacity="1"/>
    </g>
</svg>
